<svg width="94" height="94" viewBox="0 0 94 94" fill="none" xmlns="http://www.w3.org/2000/svg">
<path d="M47 0C37.7043 0 28.6173 2.7565 20.8882 7.92093C13.1591 13.0854 7.135 20.4257 3.57768 29.0139C0.0203644 37.602 -0.910392 47.0521 0.903113 56.1692C2.71662 65.2863 7.19293 73.6609 13.766 80.234C20.3391 86.8071 28.7137 91.2834 37.8308 93.0969C46.9479 94.9104 56.398 93.9796 64.9861 90.4223C73.5743 86.865 80.9146 80.8409 86.0791 73.1118C91.2435 65.3827 94 56.2957 94 47C94 34.5348 89.0482 22.5802 80.234 13.766C71.4198 4.95177 59.4652 0 47 0ZM41.1642 23.5C41.1642 21.9418 41.7831 20.4475 42.8849 19.3457C43.9867 18.244 45.481 17.625 47.0392 17.625C48.5973 17.625 50.0917 18.244 51.1934 19.3457C52.2952 20.4475 52.9142 21.9418 52.9142 23.5V50.4858C52.9142 51.2573 52.7622 52.0213 52.467 52.7341C52.1717 53.4469 51.739 54.0945 51.1934 54.6401C50.6479 55.1856 50.0002 55.6184 49.2874 55.9136C48.5747 56.2089 47.8107 56.3608 47.0392 56.3608C46.2677 56.3608 45.5037 56.2089 44.7909 55.9136C44.0781 55.6184 43.4305 55.1856 42.8849 54.6401C42.3394 54.0945 41.9066 53.4469 41.6114 52.7341C41.3161 52.0213 41.1642 51.2573 41.1642 50.4858V23.5ZM47 76.375C45.6676 76.375 44.3652 75.9799 43.2573 75.2397C42.1495 74.4994 41.286 73.4473 40.7761 72.2163C40.2663 70.9854 40.1329 69.6308 40.3928 68.3241C40.6527 67.0173 41.2943 65.8169 42.2365 64.8748C43.1786 63.9326 44.379 63.291 45.6858 63.0311C46.9925 62.7712 48.3471 62.9046 49.578 63.4145C50.809 63.9243 51.8611 64.7878 52.6013 65.8956C53.3416 67.0035 53.7367 68.3059 53.7367 69.6383C53.7367 71.425 53.0269 73.1385 51.7636 74.4019C50.5002 75.6652 48.7867 76.375 47 76.375Z" fill="#B00020"/>
</svg>
