<svg width="94" height="94" viewBox="0 0 94 94" fill="none" xmlns="http://www.w3.org/2000/svg">
<path d="M47 0C59.4652 0 71.4198 4.95177 80.234 13.766C89.0482 22.5802 94 34.5348 94 47C94 59.4652 89.0482 71.4198 80.234 80.234C71.4198 89.0482 59.4652 94 47 94C34.5348 94 22.5802 89.0482 13.766 80.234C4.95177 71.4198 0 59.4652 0 47C0 34.5348 4.95177 22.5802 13.766 13.766C22.5802 4.95177 34.5348 0 47 0ZM41.1451 56.2724L30.7044 45.825C30.3301 45.4507 29.8858 45.1538 29.3967 44.9512C28.9077 44.7487 28.3835 44.6444 27.8542 44.6444C27.3249 44.6444 26.8007 44.7487 26.3117 44.9512C25.8226 45.1538 25.3783 45.4507 25.004 45.825C24.2481 46.5809 23.8234 47.6062 23.8234 48.6752C23.8234 49.7443 24.2481 50.7695 25.004 51.5254L38.2983 64.8197C38.6715 65.1959 39.1155 65.4945 39.6047 65.6982C40.0939 65.902 40.6186 66.0068 41.1485 66.0068C41.6784 66.0068 42.2031 65.902 42.6923 65.6982C43.1815 65.4945 43.6255 65.1959 43.9987 64.8197L71.5273 37.2844C71.9066 36.9117 72.2083 36.4675 72.4151 35.9776C72.6219 35.4876 72.7296 34.9616 72.7321 34.4298C72.7346 33.898 72.6317 33.371 72.4295 32.8792C72.2273 32.3873 71.9297 31.9404 71.5539 31.5641C71.1781 31.1879 70.7315 30.8898 70.2399 30.687C69.7483 30.4842 69.2214 30.3807 68.6896 30.3825C68.1578 30.3844 67.6316 30.4915 67.1415 30.6977C66.6513 30.9039 66.2068 31.2051 65.8336 31.584L41.1451 56.2724Z" fill="#33691E"/>
</svg>
