<svg width="94" height="90" viewBox="0 0 94 90" fill="none" xmlns="http://www.w3.org/2000/svg">
<path d="M51.1566 2.32851C49.5305 -0.776169 44.4736 -0.776169 42.8474 2.32851L0.549568 83.0311C0.16881 83.7544 -0.0199539 84.565 0.00166931 85.384C0.0232926 86.2029 0.254565 87.0022 0.672953 87.704C1.09134 88.4058 1.68257 88.9862 2.38904 89.3886C3.09551 89.7909 3.89313 90.0016 4.70416 90H89.2999C90.1104 90.0017 90.9075 89.7912 91.6135 89.3891C92.3195 88.987 92.9102 88.4069 93.3282 87.7055C93.7462 87.0041 93.9771 86.2052 93.9984 85.3869C94.0197 84.5685 93.8307 83.7585 93.4498 83.0358L51.1566 2.32851ZM51.7018 75.7584H42.3023V66.2639H51.7018V75.7584ZM42.3023 56.7695V33.0335H51.7018L51.7065 56.7695H42.3023Z" fill="#F57C00"/>
</svg>
